<?xml version="1.0" standalone="no"?>
<!DOCTYPE svg PUBLIC "-//W3C//DTD SVG 20010904//EN"
 "http://www.w3.org/TR/2001/REC-SVG-20010904/DTD/svg10.dtd">
<svg version="1.0" xmlns="http://www.w3.org/2000/svg"
 width="358.000000pt" height="81.000000pt" viewBox="0 0 358.000000 81.000000"
 preserveAspectRatio="xMidYMid meet">

<g transform="translate(0.000000,81.000000) scale(0.100000,-0.100000)"
fill="#000000" stroke="none">
<path d="M505 781 c-16 -10 -101 -88 -188 -172 -142 -139 -158 -158 -163 -195
-6 -42 -6 -42 101 -158 l108 -117 34 33 c18 17 33 37 33 42 0 6 -39 50 -87 98
l-87 88 144 146 c80 81 162 163 183 182 20 19 37 38 37 43 0 6 -61 29 -80 29
-3 0 -18 -8 -35 -19z"/>
<path d="M213 693 c-171 -175 -202 -228 -189 -317 10 -62 51 -124 154 -231
l94 -97 34 33 c36 35 42 53 22 66 -7 5 -55 51 -105 104 -87 90 -93 99 -93 138
0 23 7 56 16 74 10 18 77 93 151 169 124 125 133 137 115 147 -12 6 -39 11
-62 11 -39 0 -46 -5 -137 -97z"/>
<path d="M600 715 l-34 -35 106 -107 c114 -118 131 -153 104 -217 -7 -17 -76
-97 -154 -176 -77 -80 -137 -149 -132 -154 5 -4 29 -11 55 -14 l47 -5 128 129
c70 71 136 145 146 164 26 50 25 152 -3 205 -20 39 -207 245 -222 245 -4 0
-22 -16 -41 -35z m253 -288 c4 3 7 -14 7 -39 0 -33 -8 -56 -31 -92 -28 -42
-34 -46 -47 -33 -13 14 -12 20 7 59 11 25 22 63 23 86 1 39 3 41 18 27 9 -8
20 -12 23 -8z"/>
<path d="M1394 730 c-55 -22 -73 -109 -31 -147 12 -11 37 -28 55 -37 70 -36
94 -93 54 -129 -40 -36 -88 -14 -125 58 l-16 30 -1 -55 c0 -55 0 -55 33 -59
96 -11 126 -7 154 22 22 22 28 37 28 71 0 51 -20 78 -80 108 -57 29 -75 47
-75 78 0 78 97 60 115 -21 11 -47 25 -33 25 25 0 51 -1 53 -27 54 -16 0 -41 3
-58 6 -16 3 -40 1 -51 -4z"/>
<path d="M1915 727 c-59 -24 -77 -39 -96 -80 -37 -82 -20 -179 40 -229 56 -47
171 -47 214 0 21 23 34 82 18 82 -6 0 -11 -7 -11 -16 0 -8 -13 -29 -29 -45
-23 -22 -39 -29 -69 -29 -123 0 -167 192 -66 285 53 49 129 22 156 -55 21 -62
35 -27 20 50 -6 28 -12 35 -32 37 -14 1 -45 4 -70 7 -26 3 -58 0 -75 -7z"/>
<path d="M970 721 c0 -6 7 -11 15 -11 26 0 35 -37 35 -154 0 -91 -3 -118 -16
-130 -8 -9 -20 -16 -25 -16 -5 0 -9 -4 -9 -10 0 -14 209 -13 249 1 38 14 51
35 51 88 0 40 -20 72 -51 83 -11 4 -11 9 4 25 24 28 22 85 -4 109 -18 16 -40
20 -135 22 -77 3 -114 0 -114 -7z m190 -31 c43 -43 10 -110 -55 -110 l-35 0 0
65 0 65 35 0 c22 0 43 -8 55 -20z m25 -155 c49 -49 15 -125 -56 -125 -39 0
-59 33 -59 97 l0 53 45 0 c35 0 52 -6 70 -25z"/>
<path d="M1580 720 c0 -5 6 -10 14 -10 38 0 46 -28 46 -150 0 -122 -8 -150
-46 -150 -8 0 -14 -4 -14 -10 0 -6 35 -10 85 -10 86 0 104 7 63 25 -22 10 -23
15 -23 145 0 130 1 135 23 145 41 18 23 25 -63 25 -50 0 -85 -4 -85 -10z"/>
<path d="M510 625 l-34 -35 40 -42 c21 -22 60 -63 87 -91 26 -27 47 -52 47
-56 0 -3 -81 -87 -180 -186 -160 -160 -178 -181 -163 -192 9 -7 33 -13 52 -13
33 0 52 16 220 179 l184 178 -5 41 c-5 35 -20 57 -105 147 -54 57 -100 105
-104 105 -3 0 -20 -16 -39 -35z m221 -248 c-5 -14 -14 -28 -19 -31 -5 -3 -2
10 6 29 18 39 28 41 13 2z"/>
<path d="M380 478 c-11 -12 -20 -29 -20 -39 0 -22 24 -41 44 -33 11 4 19 -2
27 -22 7 -16 11 -34 10 -40 -2 -19 18 -64 28 -64 13 0 41 53 41 78 0 11 7 25
15 32 14 12 13 15 -4 31 -11 10 -22 27 -26 39 -4 14 -15 20 -35 20 -16 0 -32
5 -35 10 -10 15 -22 12 -45 -12z"/>
<path d="M990 296 c0 -44 1 -46 30 -46 29 0 30 1 27 43 -2 38 -5 42 -29 45
-27 3 -28 2 -28 -42z m48 17 c2 -8 -5 -13 -17 -13 -12 0 -21 6 -21 16 0 18 31
15 38 -3z m0 -40 c2 -8 -5 -13 -17 -13 -12 0 -21 6 -21 16 0 18 31 15 38 -3z"/>
<path d="M1111 299 c-7 -23 -10 -44 -7 -47 3 -3 6 0 6 6 0 7 9 12 20 12 11 0
20 -5 20 -12 0 -6 3 -9 6 -6 7 8 -17 88 -26 88 -4 0 -12 -18 -19 -41z m25 -16
c-10 -10 -19 5 -10 18 6 11 8 11 12 0 2 -7 1 -15 -2 -18z"/>
<path d="M1550 295 c0 -44 0 -45 33 -44 30 2 30 2 5 6 -34 5 -37 30 -5 36 l22
4 -22 2 c-33 2 -29 29 5 34 25 4 25 4 -5 6 -33 1 -33 0 -33 -44z"/>
<path d="M1733 333 c-22 -8 -14 -33 12 -43 14 -5 25 -15 25 -21 0 -7 -10 -9
-25 -7 -14 3 -25 1 -25 -4 0 -5 12 -8 27 -6 37 4 41 31 8 46 -30 14 -24 36 8
27 17 -5 19 -4 7 4 -16 12 -19 12 -37 4z"/>
<path d="M1837 295 c-15 -42 -15 -44 3 -33 14 9 22 9 36 -3 15 -13 16 -12 9
11 -14 44 -24 70 -29 70 -2 0 -11 -20 -19 -45z m27 0 c3 -9 0 -15 -9 -15 -9 0
-12 6 -9 15 4 8 7 15 9 15 2 0 5 -7 9 -15z"/>
<path d="M1943 295 c0 -27 2 -40 4 -27 3 13 12 22 23 22 11 0 20 -9 23 -22 2
-13 4 0 4 27 0 28 -2 40 -4 28 -3 -14 -12 -23 -23 -23 -11 0 -20 9 -23 23 -2
12 -4 0 -4 -28z"/>
<path d="M2050 295 c0 -44 0 -45 33 -44 30 2 30 2 5 6 -34 5 -37 30 -5 36 l22
4 -22 2 c-33 2 -29 29 5 34 25 4 25 4 -5 6 -33 1 -33 0 -33 -44z"/>
<path d="M2467 333 c-14 -13 -6 -41 13 -46 27 -7 25 -25 -2 -30 -20 -4 -19 -4
5 -6 21 -1 27 3 27 20 0 13 -8 23 -20 26 -24 6 -21 29 3 27 9 -1 14 2 11 7 -6
11 -28 12 -37 2z"/>
<path d="M2581 318 c-5 -13 -12 -33 -16 -46 -6 -22 -5 -22 15 -10 18 10 24 10
27 1 3 -7 9 -13 13 -13 5 0 2 20 -7 45 -8 25 -17 45 -19 45 -3 0 -8 -10 -13
-22z m19 -23 c0 -8 -4 -15 -10 -15 -5 0 -7 7 -4 15 4 8 8 15 10 15 2 0 4 -7 4
-15z"/>
<path d="M2683 295 c0 -27 2 -40 4 -27 2 12 11 22 18 22 7 0 16 -10 18 -22 2
-13 4 0 4 27 0 28 -2 40 -4 28 -2 -13 -11 -23 -18 -23 -7 0 -16 10 -18 23 -2
12 -4 0 -4 -28z"/>
<path d="M2798 295 c-10 -25 -13 -45 -8 -45 6 0 10 5 10 10 0 14 37 12 43 -2
4 -8 6 -9 6 -2 1 12 -27 84 -32 84 -1 0 -10 -20 -19 -45z m32 -6 c0 -5 -4 -9
-10 -9 -5 0 -10 7 -10 16 0 8 5 12 10 9 6 -3 10 -10 10 -16z"/>
<path d="M2901 293 c1 -27 4 -38 6 -25 5 27 23 29 30 2 3 -11 9 -20 15 -20 5
0 5 8 -1 18 -7 13 -7 22 1 30 17 17 1 42 -27 42 -23 0 -25 -3 -24 -47z m42 22
c1 -5 -6 -11 -15 -13 -11 -2 -18 3 -18 13 0 17 30 18 33 0z"/>
<path d="M3080 295 c0 -43 1 -45 28 -44 23 2 24 2 5 6 -27 5 -31 30 -5 36 16
4 16 5 0 6 -26 2 -22 29 5 34 19 4 18 4 -5 6 -27 1 -28 -1 -28 -44z"/>
<path d="M3420 295 c0 -43 1 -45 28 -44 23 2 24 2 5 6 -27 5 -31 30 -5 36 16
4 16 5 0 6 -26 2 -22 29 5 34 19 4 18 4 -5 6 -27 1 -28 -1 -28 -44z"/>
<path d="M1211 288 c2 -30 3 -35 6 -15 2 15 8 27 12 27 4 0 14 -12 21 -27 8
-19 14 -23 18 -14 2 7 0 16 -5 20 -6 3 -15 16 -22 29 -18 35 -31 26 -30 -20z"/>
<path d="M1334 316 c-13 -33 0 -61 29 -64 27 -3 28 -2 25 35 -2 31 -7 39 -26
41 -13 2 -24 -3 -28 -12z m42 -11 c6 -16 -19 -48 -30 -38 -3 4 -6 17 -6 30 0
26 27 32 36 8z"/>
<path d="M1443 295 c2 -36 5 -40 27 -40 22 0 25 4 27 40 l1 40 -6 -35 c-4 -22
-13 -35 -22 -35 -9 0 -18 13 -22 35 l-6 35 1 -40z"/>
<path d="M2162 293 c-2 -41 -1 -43 26 -42 22 1 23 2 5 6 -17 3 -23 13 -26 41
l-4 37 -1 -42z"/>
<path d="M2264 316 c-11 -28 0 -61 20 -61 11 0 20 6 22 13 1 7 0 8 -3 2 -11
-22 -33 -9 -33 20 0 30 23 43 33 18 3 -8 6 -6 6 5 1 21 -37 24 -45 3z"/>
<path d="M3013 290 c0 -25 2 -35 4 -22 2 12 2 32 0 45 -2 12 -4 2 -4 -23z"/>
<path d="M3181 288 c2 -31 3 -35 6 -15 4 23 7 26 19 16 18 -14 18 0 0 24 -20
27 -26 21 -25 -25z"/>
<path d="M3227 298 c-3 -18 -1 -37 4 -43 5 -5 9 8 9 33 0 50 -6 54 -13 10z"/>
<path d="M3302 290 c1 -32 2 -37 5 -16 l5 29 23 -29 24 -29 -1 45 c-1 32 -2
37 -5 16 l-5 -29 -23 29 -24 29 1 -45z"/>
<path d="M2378 283 c7 -3 16 -2 19 1 4 3 -2 6 -13 5 -11 0 -14 -3 -6 -6z"/>
<path d="M991 133 c1 -26 3 -40 6 -31 2 9 14 18 26 20 16 2 22 10 22 28 0 20
-6 26 -27 28 -27 3 -28 2 -27 -45z m47 14 c2 -12 -3 -17 -17 -17 -15 0 -21 6
-21 21 0 25 33 22 38 -4z"/>
<path d="M1231 133 c1 -26 4 -38 6 -25 6 28 17 28 35 0 13 -20 14 -19 14 23
-1 40 -3 44 -28 47 -27 3 -28 2 -27 -45z m47 20 c2 -8 -5 -13 -17 -13 -12 0
-21 6 -21 16 0 18 31 15 38 -3z"/>
<path d="M1650 135 c0 -43 1 -45 28 -44 23 2 24 2 5 6 -27 5 -31 30 -5 36 16
4 16 5 0 6 -26 2 -22 29 5 34 19 4 18 4 -5 6 -27 1 -28 -1 -28 -44z"/>
<path d="M1727 173 c-14 -13 -6 -41 13 -46 27 -7 25 -25 -2 -30 -20 -4 -19 -4
5 -6 21 -1 27 3 27 20 0 13 -8 23 -20 26 -24 6 -21 29 3 27 9 -1 14 2 11 7 -6
11 -28 12 -37 2z"/>
<path d="M1903 173 c-22 -8 -14 -33 12 -43 14 -5 25 -15 25 -21 0 -7 -10 -9
-25 -7 -14 3 -25 1 -25 -4 0 -5 12 -8 27 -6 37 4 41 31 8 46 -30 14 -24 36 8
27 17 -5 19 -4 7 4 -16 12 -19 12 -37 4z"/>
<path d="M1977 173 c-14 -13 -6 -41 13 -46 27 -7 25 -24 -2 -30 -16 -4 -13 -5
7 -4 36 2 41 27 7 42 -25 11 -24 31 1 29 9 -1 14 2 11 7 -6 11 -28 12 -37 2z"/>
<path d="M2050 135 c0 -43 1 -45 28 -44 23 2 24 2 5 6 -27 5 -31 30 -5 36 16
4 16 5 0 6 -26 2 -22 29 5 34 19 4 18 4 -5 6 -27 1 -28 -1 -28 -44z"/>
<path d="M2220 135 c0 -43 1 -45 28 -44 23 2 24 2 5 6 -13 2 -23 11 -23 18 0
7 10 16 23 18 l22 4 -22 2 c-13 0 -23 7 -23 15 0 8 10 17 23 19 19 4 18 4 -5
6 -27 1 -28 -1 -28 -44z"/>
<path d="M2480 135 c0 -43 1 -45 28 -44 23 2 24 2 5 6 -27 5 -31 30 -5 36 16
4 16 5 0 6 -26 2 -22 29 5 34 19 4 18 4 -5 6 -27 1 -28 -1 -28 -44z"/>
<path d="M2720 135 c0 -44 0 -45 33 -44 30 2 30 2 5 6 -34 5 -37 30 -5 36 l22
4 -22 2 c-33 2 -29 29 5 34 25 4 25 4 -5 6 -33 1 -33 0 -33 -44z"/>
<path d="M3180 135 c0 -44 0 -45 33 -44 30 2 30 2 5 6 -34 5 -37 30 -5 36 l22
4 -22 2 c-33 2 -29 29 5 34 25 4 25 4 -5 6 -33 1 -33 0 -33 -44z"/>
<path d="M3261 133 c1 -26 4 -38 6 -25 5 27 20 29 28 2 3 -11 11 -20 16 -20 6
0 7 5 3 11 -4 7 -7 26 -8 43 -1 24 -6 32 -23 34 -21 3 -23 0 -22 -45z m39 22
c0 -8 -7 -15 -15 -15 -8 0 -15 7 -15 15 0 8 7 15 15 15 8 0 15 -7 15 -15z"/>
<path d="M3420 135 c0 -43 1 -45 28 -44 23 2 24 2 5 6 -27 5 -31 30 -5 36 16
4 16 5 0 6 -26 2 -22 29 5 34 19 4 18 4 -5 6 -27 1 -28 -1 -28 -44z"/>
<path d="M1074 156 c-3 -8 -4 -25 -2 -38 2 -17 9 -23 28 -23 22 0 25 4 25 35
0 29 -4 36 -23 38 -13 2 -24 -3 -28 -12z m41 -26 c0 -36 -29 -33 -33 3 -3 23
0 28 15 25 12 -2 18 -12 18 -28z"/>
<path d="M1153 135 c2 -36 5 -40 27 -40 22 0 25 4 27 40 l1 40 -6 -35 c-4 -22
-13 -35 -22 -35 -9 0 -18 13 -22 35 l-6 35 1 -40z"/>
<path d="M1352 133 c-2 -41 -1 -43 26 -42 22 1 23 2 5 6 -17 3 -23 13 -26 41
l-4 37 -1 -42z"/>
<path d="M1453 130 c0 -25 2 -35 4 -22 2 12 2 32 0 45 -2 12 -4 2 -4 -23z"/>
<path d="M1481 128 c2 -30 3 -35 6 -15 2 15 8 27 12 27 4 0 14 -12 21 -27 8
-19 14 -23 18 -14 2 7 0 16 -5 20 -6 3 -15 16 -22 29 -18 35 -31 26 -30 -20z"/>
<path d="M1570 158 c0 -28 20 -72 29 -62 13 15 31 74 22 74 -5 0 -12 -12 -16
-27 l-8 -28 -13 30 c-7 17 -13 23 -14 13z"/>
<path d="M1797 162 c6 -4 13 -23 16 -42 l4 -35 1 37 c1 20 8 39 15 41 6 3 -1
6 -18 6 -17 0 -25 -3 -18 -7z"/>
<path d="M1863 130 c0 -25 2 -35 4 -22 2 12 2 32 0 45 -2 12 -4 2 -4 -23z"/>
<path d="M2121 128 c1 -36 2 -39 9 -18 6 22 8 23 15 8 9 -22 25 -24 25 -3 0 8
5 15 10 15 6 0 10 10 9 23 l0 22 -11 -22 c-14 -28 -25 -29 -33 -3 -11 35 -25
22 -24 -22z"/>
<path d="M2301 130 l1 -45 8 35 c5 20 5 39 -1 45 -5 5 -9 -8 -8 -35z"/>
<path d="M2352 146 c-2 -24 -4 -27 -17 -16 -19 16 -19 1 0 -24 20 -26 27 -16
22 30 -3 30 -4 32 -5 10z"/>
<path d="M2383 163 c12 -3 17 -16 19 -41 l1 -37 4 35 c3 19 10 38 16 42 7 4
-4 7 -23 7 -19 -1 -27 -3 -17 -6z"/>
<path d="M2553 163 c12 -3 17 -16 19 -41 l1 -37 4 35 c3 19 10 38 16 42 7 4
-4 7 -23 7 -19 -1 -27 -3 -17 -6z"/>
<path d="M2652 133 c-2 -41 -1 -43 26 -42 22 1 23 2 5 6 -17 3 -23 13 -26 41
l-4 37 -1 -42z"/>
<path d="M2834 156 c-16 -43 21 -85 49 -57 9 9 5 11 -13 9 -21 -3 -25 1 -25
22 0 19 5 25 22 24 12 0 20 3 17 8 -8 13 -44 9 -50 -6z"/>
<path d="M2914 156 c-3 -8 -4 -25 -2 -38 2 -17 9 -23 28 -23 22 0 25 4 25 35
0 29 -4 36 -23 38 -13 2 -24 -3 -28 -12z m41 -26 c0 -36 -29 -33 -33 3 -3 23
0 28 15 25 12 -2 18 -12 18 -28z"/>
<path d="M2991 128 c1 -35 2 -38 8 -18 7 24 7 24 18 5 l12 -20 7 20 c8 19 9
18 15 -5 5 -19 7 -15 8 20 l1 45 -20 -25 -20 -25 -6 23 c-10 37 -24 25 -23
-20z"/>
<path d="M3092 130 c0 -35 2 -39 7 -20 6 23 7 24 15 5 l7 -20 12 20 c11 19 11
19 18 -5 5 -20 7 -15 8 20 l1 45 -18 -23 -18 -24 -17 24 c-16 23 -16 22 -15
-22z"/>
<path d="M3344 156 c-11 -29 1 -61 24 -64 12 -2 22 1 22 6 0 5 -8 9 -17 8 -13
-1 -19 8 -21 28 -3 26 -2 28 23 22 17 -4 24 -3 20 4 -9 15 -45 12 -51 -4z"/>
</g>
</svg>
